<svg xmlns="http://www.w3.org/2000/svg" viewBox="0 0 100 100"><path d="M81.8 37.1c-.5-.9-.2-2 .6-2.6l.3-.2c1.4-1 1.7-2.8.7-4.2-1-1.3-2.8-1.7-4.2-.7l-.3.2c-.8.6-1.9.5-2.6-.3-2.5-2.7-5.4-5-8.5-6.8-1 .8-2.3 1.3-3.8 1.3H36c-1.4 0-2.7-.5-3.8-1.3-3.1 1.8-6 4-8.5 6.8-.7.7-1.8.8-2.6.3l-.3-.2c-.5-.4-1.1-.6-1.7-.6h-.5c-.8.1-1.5.6-1.9 1.2-.5.6-.7 1.5-.5 2.2s.6 1.5 1.2 2l.3.2c.8.6 1.1 1.7.6 2.6-2.8 5.3-4.3 11.1-4.3 17 0 19.8 16.2 36 36 36s36-16.2 36-36c0-5.9-1.5-11.7-4.2-16.9zM37 30h26c1.1 0 2 .9 2 2s-.9 2-2 2H37c-1.1 0-2-.9-2-2s.9-2 2-2zm6 14c-1.1 0-2-.9-2-2s.9-2 2-2h14c1.1 0 2 .9 2 2s-.9 2-2 2H43zm9 16c0 1.1-.9 2-2 2s-2-.9-2-2 .9-2 2-2 2 .9 2 2zm17.3 14.2c-.2 2.1-1.4 4-3.2 5.2-4.9 3-10.5 4.6-16.1 4.6s-11.2-1.5-16.1-4.7c-1.8-1.1-3-3-3.2-5.2-.2-2.1.5-4.2 2-5.7 2.3-2.3 5.9-2.7 8.8-.9 5.2 3.3 11.9 3.3 17 0 2.8-1.8 6.4-1.4 8.8.9 1.5 1.6 2.2 3.6 2 5.8zm-4.8-2.9c.6.6 1 1.5.9 2.4-.1.9-.6 1.7-1.4 2.2-8.5 5.4-19.4 5.4-27.8 0-.8-.5-1.3-1.3-1.4-2.2-.1-.9.2-1.8.9-2.4.6-.6 1.3-.9 2.1-.9.6 0 1.2.2 1.7.5C42.6 73 46.3 74 50 74s7.4-1 10.7-3.1c1.2-.8 2.8-.6 3.8.4zM34 18v-6c0-1.1.9-2 2-2h28c1.1 0 2 .9 2 2v6c0 1.1-.9 2-2 2H36c-1.1 0-2-.9-2-2z"/></svg>